# xmcd CD database file
#
# Track frame offsets:
#	150
#	32555
#	67030
#	93265
#	116478
#	136085
#	164255
#	179635
#
# Disc length: 2720 seconds
#
# Revision: 0
# Processed by: cddbd v1.5.2PL0 Copyright (c) Steve Scherf et al.
# Submitted via: CDex 1.70beta2
#
DISCID=660a9e08
DTITLE=Bastian Stein - Viktor
DYEAR=2016
DGENRE=Jazz
TTITLE0=Tati
TTITLE1=Hydrastis
TTITLE2=Traces
TTITLE3=It Seems
TTITLE4=Off the Record
TTITLE5=For Felician
TTITLE6=Fantasia
TTITLE7=Der Abschied
EXTD=YEAR: 2016
EXTT0=
EXTT1=
EXTT2=
EXTT3=
EXTT4=
EXTT5=
EXTT6=
EXTT7=
PLAYORDER=
